# xmcd
#
# Track frame offsets:
#	150
#	11902
#	25907
#	40007
#	55700
#	68075
#	82410
#	95792
#	110442
#	121567
#	135697
#	145820
#
# Disc length: 2146 seconds
#
# Revision: 0
# Processed by: cddbd v1.5.2PL0 Copyright (c) Steve Scherf et al.
# Submitted via: EasyCDDAExtractor 16.0.8.1
#
DISCID=a208600c
DTITLE=Dino Franco e Morai  - Dino Franco e Morai  - 1986 - Vol. II
DYEAR=1986
DGENRE=Sertanejo
TTITLE0=Cavalo Preto
TTITLE1=Cheiro De Relva
TTITLE2=Armagurado
TTITLE3=Erro De Soma
TTITLE4=Velho Marujo
TTITLE5=Minha Menssagem
TTITLE6=Familia Do Interior
TTITLE7=Arroz A Carreteiro
TTITLE8=Falando As Estrelas
TTITLE9=Lição Final
TTITLE10=Amor Traiçoeiro
TTITLE11=Cabloco Da Cidade
EXTD=
EXTT0=
EXTT1=
EXTT2=
EXTT3=
EXTT4=
EXTT5=
EXTT6=
EXTT7=
EXTT8=
EXTT9=
EXTT10=
EXTT11=
PLAYORDER=
